<svg class="toyplot-canvas-Canvas" xmlns:toyplot="http://www.sandia.gov/toyplot" xmlns:xlink="http://www.w3.org/1999/xlink" xmlns="http://www.w3.org/2000/svg" width="400.0px" height="500.0px" viewBox="0 0 400.0 500.0" preserveAspectRatio="xMidYMid meet" style="background-color:transparent;border-color:#292724;border-style:none;border-width:1.0;fill:rgb(16.1%,15.3%,14.1%);fill-opacity:1.0;font-family:Helvetica;font-size:12px;opacity:1.0;stroke:rgb(16.1%,15.3%,14.1%);stroke-opacity:1.0;stroke-width:1.0" id="td21a5fba55894409807e8c3a2e46e1de"><g class="toyplot-coordinates-Cartesian" id="tb9318dd1560c486985ec66df930332db"><clipPath id="t5ff8e1d99f0d46748a89447438318def"><rect x="30.0" y="30.0" width="340.0" height="440.0" /></clipPath><g clip-path="url(#t5ff8e1d99f0d46748a89447438318def)"><g class="toytree-mark-Toytree" id="t96bb2322029d47a79e23b928d453029a"><g class="toytree-Edges" style="fill:none;stroke:rgb(14.9%,14.9%,14.9%);stroke-linecap:round;stroke-opacity:1;stroke-width:2"><path d="M 55.7 234.5 L 140.5 395.4" id="25,24" /><path d="M 55.7 234.5 L 140.5 429.6" id="25,23" /><path d="M 55.7 234.5 L 140.5 61.9" id="25,22" /><path d="M 55.7 234.5 L 140.5 79.0" id="25,21" /><path d="M 55.7 234.5 L 140.5 96.1" id="25,20" /><path d="M 55.7 234.5 L 140.5 113.2" id="25,19" /><path d="M 55.7 234.5 L 140.5 130.3" id="25,18" /><path d="M 55.7 234.5 L 140.5 147.4" id="25,17" /><path d="M 55.7 234.5 L 140.5 164.5" id="25,16" /><path d="M 55.7 234.5 L 140.5 181.6" id="25,15" /><path d="M 55.7 234.5 L 140.5 198.7" id="25,14" /><path d="M 55.7 234.5 L 140.5 215.8" id="25,13" /><path d="M 55.7 234.5 L 140.5 232.9" id="25,12" /><path d="M 55.7 234.5 L 140.5 250.0" id="25,11" /><path d="M 55.7 234.5 L 140.5 267.1" id="25,10" /><path d="M 55.7 234.5 L 140.5 284.2" id="25,9" /><path d="M 55.7 234.5 L 140.5 301.3" id="25,8" /><path d="M 55.7 234.5 L 140.5 318.4" id="25,7" /><path d="M 55.7 234.5 L 140.5 335.5" id="25,6" /><path d="M 55.7 234.5 L 140.5 352.6" id="25,5" /><path d="M 55.7 234.5 L 140.5 369.7" id="25,4" /><path d="M 140.5 395.4 L 225.3 386.8" id="24,3" /><path d="M 140.5 395.4 L 225.3 403.9" id="24,2" /><path d="M 140.5 429.6 L 225.3 421.0" id="23,1" /><path d="M 140.5 429.6 L 225.3 438.1" id="23,0" /></g><g class="toytree-AlignEdges" style="stroke:rgb(66.3%,66.3%,66.3%);stroke-dasharray:2, 4;stroke-linecap:round;stroke-opacity:1.0;stroke-width:2"><path d="M 225.3 438.1 L 225.3 438.1" /><path d="M 225.3 421.0 L 225.3 421.0" /><path d="M 225.3 403.9 L 225.3 403.9" /><path d="M 225.3 386.8 L 225.3 386.8" /><path d="M 225.3 369.7 L 140.5 369.7" /><path d="M 225.3 352.6 L 140.5 352.6" /><path d="M 225.3 335.5 L 140.5 335.5" /><path d="M 225.3 318.4 L 140.5 318.4" /><path d="M 225.3 301.3 L 140.5 301.3" /><path d="M 225.3 284.2 L 140.5 284.2" /><path d="M 225.3 267.1 L 140.5 267.1" /><path d="M 225.3 250.0 L 140.5 250.0" /><path d="M 225.3 232.9 L 140.5 232.9" /><path d="M 225.3 215.8 L 140.5 215.8" /><path d="M 225.3 198.7 L 140.5 198.7" /><path d="M 225.3 181.6 L 140.5 181.6" /><path d="M 225.3 164.5 L 140.5 164.5" /><path d="M 225.3 147.4 L 140.5 147.4" /><path d="M 225.3 130.3 L 140.5 130.3" /><path d="M 225.3 113.2 L 140.5 113.2" /><path d="M 225.3 96.1 L 140.5 96.1" /><path d="M 225.3 79.0 L 140.5 79.0" /><path d="M 225.3 61.9 L 140.5 61.9" /></g><g class="toytree-Nodes" style="fill:rgb(10.6%,62%,46.7%);fill-opacity:1.0;stroke:rgb(100%,100%,100%);stroke-opacity:1.0;stroke-width:1.5"><g id="node-0" transform="translate(225.265,438.147)"><circle r="5.0" /></g><g id="node-1" transform="translate(225.265,421.043)"><circle r="5.0" /></g><g id="node-2" transform="translate(225.265,403.938)"><circle r="5.0" /></g><g id="node-3" transform="translate(225.265,386.834)"><circle r="5.0" /></g><g id="node-4" transform="translate(140.459,369.730)"><circle r="5.0" /></g><g id="node-5" transform="translate(140.459,352.626)"><circle r="5.0" /></g><g id="node-6" transform="translate(140.459,335.521)"><circle r="5.0" /></g><g id="node-7" transform="translate(140.459,318.417)"><circle r="5.0" /></g><g id="node-8" transform="translate(140.459,301.313)"><circle r="5.0" /></g><g id="node-9" transform="translate(140.459,284.209)"><circle r="5.0" /></g><g id="node-10" transform="translate(140.459,267.104)"><circle r="5.0" /></g><g id="node-11" transform="translate(140.459,250.000)"><circle r="5.0" /></g><g id="node-12" transform="translate(140.459,232.896)"><circle r="5.0" /></g><g id="node-13" transform="translate(140.459,215.791)"><circle r="5.0" /></g><g id="node-14" transform="translate(140.459,198.687)"><circle r="5.0" /></g><g id="node-15" transform="translate(140.459,181.583)"><circle r="5.0" /></g><g id="node-16" transform="translate(140.459,164.479)"><circle r="5.0" /></g><g id="node-17" transform="translate(140.459,147.374)"><circle r="5.0" /></g><g id="node-18" transform="translate(140.459,130.270)"><circle r="5.0" /></g><g id="node-19" transform="translate(140.459,113.166)"><circle r="5.0" /></g><g id="node-20" transform="translate(140.459,96.062)"><circle r="5.0" /></g><g id="node-21" transform="translate(140.459,78.957)"><circle r="5.0" /></g><g id="node-22" transform="translate(140.459,61.853)"><circle r="5.0" /></g><g id="node-23" transform="translate(140.459,429.595)"><circle r="5.0" /></g><g id="node-24" transform="translate(140.459,395.386)"><circle r="5.0" /></g><g id="node-25" transform="translate(55.654,234.525)"><circle r="5.0" /></g></g><g class="toytree-TipLabels" style="fill:rgb(14.9%,14.9%,14.9%);fill-opacity:1.0;font-family:helvetica;font-size:11px;font-weight:normal;stroke:none;white-space:pre"><g transform="translate(225.26,438.15)rotate(0)"><text x="15.00" y="2.81" style="">HKU3-12</text></g><g transform="translate(225.26,421.04)rotate(0)"><text x="15.00" y="2.81" style="">BtCoV_279_2005</text></g><g transform="translate(225.26,403.94)rotate(0)"><text x="15.00" y="2.81" style="">Bat_CoVZXC21</text></g><g transform="translate(225.26,386.83)rotate(0)"><text x="15.00" y="2.81" style="">Hu_Italy_TE4836_2020</text></g><g transform="translate(225.26,369.73)rotate(0)"><text x="15.00" y="2.81" style="">Guangxi_Pangolin_P5E</text></g><g transform="translate(225.26,352.63)rotate(0)"><text x="15.00" y="2.81" style="">Guangxi_Pangolin_P5L</text></g><g transform="translate(225.26,335.52)rotate(0)"><text x="15.00" y="2.81" style="">Guangxi_Pangolin_P4L</text></g><g transform="translate(225.26,318.42)rotate(0)"><text x="15.00" y="2.81" style="">Guangxi_Pangolin_P1E</text></g><g transform="translate(225.26,301.31)rotate(0)"><text x="15.00" y="2.81" style="">HKU3-6</text></g><g transform="translate(225.26,284.21)rotate(0)"><text x="15.00" y="2.81" style="">Rf1</text></g><g transform="translate(225.26,267.10)rotate(0)"><text x="15.00" y="2.81" style="">BtCoV_273_2005</text></g><g transform="translate(225.26,250.00)rotate(0)"><text x="15.00" y="2.81" style="">Rs3367</text></g><g transform="translate(225.26,232.90)rotate(0)"><text x="15.00" y="2.81" style="">SARS-CoV_BJ182-4</text></g><g transform="translate(225.26,215.79)rotate(0)"><text x="15.00" y="2.81" style="">Tor2</text></g><g transform="translate(225.26,198.69)rotate(0)"><text x="15.00" y="2.81" style="">SARS</text></g><g transform="translate(225.26,181.58)rotate(0)"><text x="15.00" y="2.81" style="">Bat_CoVZC45</text></g><g transform="translate(225.26,164.48)rotate(0)"><text x="15.00" y="2.81" style="">Hu_USA_UT_00346_2020</text></g><g transform="translate(225.26,147.37)rotate(0)"><text x="15.00" y="2.81" style="">Hu_Wuhan_2020</text></g><g transform="translate(225.26,130.27)rotate(0)"><text x="15.00" y="2.81" style="">Hu_Australia_VIC231_2020</text></g><g transform="translate(225.26,113.17)rotate(0)"><text x="15.00" y="2.81" style="">RaTG13</text></g><g transform="translate(225.26,96.06)rotate(0)"><text x="15.00" y="2.81" style="">Guangdong_Pangolin_1_2019</text></g><g transform="translate(225.26,78.96)rotate(0)"><text x="15.00" y="2.81" style="">Guangdong_Pangolin_P2S_2019</text></g><g transform="translate(225.26,61.85)rotate(0)"><text x="15.00" y="2.81" style="">Guangxi_Pangolin_P2V</text></g></g></g></g></g></svg>