<svg class="toyplot-canvas-Canvas" xmlns:toyplot="http://www.sandia.gov/toyplot" xmlns:xlink="http://www.w3.org/1999/xlink" xmlns="http://www.w3.org/2000/svg" width="500.0px" height="700.0px" viewBox="0 0 500.0 700.0" preserveAspectRatio="xMidYMid meet" style="background-color:transparent;border-color:#292724;border-style:none;border-width:1.0;fill:rgb(16.1%,15.3%,14.1%);fill-opacity:1.0;font-family:Helvetica;font-size:12px;opacity:1.0;stroke:rgb(16.1%,15.3%,14.1%);stroke-opacity:1.0;stroke-width:1.0" id="t6d7628cb026e41958c6ff02ef1174bf6"><g class="toyplot-coordinates-Cartesian" id="td07f97c6480c476d9f3fdd8efea3ba4d"><clipPath id="t10bbb1646d604fcfa97b09f8245db20f"><rect x="30.0" y="30.0" width="440.0" height="640.0" /></clipPath><g clip-path="url(#t10bbb1646d604fcfa97b09f8245db20f)"><g class="toytree-mark-Toytree" id="tc69c2ab06c2b4a49a9e134798100a62c"><g class="toytree-Edges" style="fill:none;stroke:rgb(14.9%,14.9%,14.9%);stroke-linecap:round;stroke-opacity:1;stroke-width:2"><path d="M 55.5 350.0 L 276.9 62.1" id="43,42" /><path d="M 55.5 350.0 L 276.9 75.8" id="43,41" /><path d="M 55.5 350.0 L 276.9 89.5" id="43,40" /><path d="M 55.5 350.0 L 276.9 103.2" id="43,39" /><path d="M 55.5 350.0 L 276.9 116.9" id="43,38" /><path d="M 55.5 350.0 L 276.9 130.6" id="43,37" /><path d="M 55.5 350.0 L 276.9 144.4" id="43,36" /><path d="M 55.5 350.0 L 276.9 158.1" id="43,35" /><path d="M 55.5 350.0 L 276.9 171.8" id="43,34" /><path d="M 55.5 350.0 L 276.9 185.5" id="43,33" /><path d="M 55.5 350.0 L 276.9 199.2" id="43,32" /><path d="M 55.5 350.0 L 276.9 212.9" id="43,31" /><path d="M 55.5 350.0 L 276.9 226.6" id="43,30" /><path d="M 55.5 350.0 L 276.9 240.3" id="43,29" /><path d="M 55.5 350.0 L 276.9 254.0" id="43,28" /><path d="M 55.5 350.0 L 276.9 267.7" id="43,27" /><path d="M 55.5 350.0 L 276.9 281.5" id="43,26" /><path d="M 55.5 350.0 L 276.9 295.2" id="43,25" /><path d="M 55.5 350.0 L 276.9 308.9" id="43,24" /><path d="M 55.5 350.0 L 276.9 322.6" id="43,23" /><path d="M 55.5 350.0 L 276.9 336.3" id="43,22" /><path d="M 55.5 350.0 L 276.9 350.0" id="43,21" /><path d="M 55.5 350.0 L 276.9 363.7" id="43,20" /><path d="M 55.5 350.0 L 276.9 377.4" id="43,19" /><path d="M 55.5 350.0 L 276.9 391.1" id="43,18" /><path d="M 55.5 350.0 L 276.9 404.8" id="43,17" /><path d="M 55.5 350.0 L 276.9 418.5" id="43,16" /><path d="M 55.5 350.0 L 276.9 432.3" id="43,15" /><path d="M 55.5 350.0 L 276.9 446.0" id="43,14" /><path d="M 55.5 350.0 L 276.9 459.7" id="43,13" /><path d="M 55.5 350.0 L 276.9 473.4" id="43,12" /><path d="M 55.5 350.0 L 276.9 487.1" id="43,11" /><path d="M 55.5 350.0 L 276.9 500.8" id="43,10" /><path d="M 55.5 350.0 L 276.9 514.5" id="43,9" /><path d="M 55.5 350.0 L 276.9 528.2" id="43,8" /><path d="M 55.5 350.0 L 276.9 541.9" id="43,7" /><path d="M 55.5 350.0 L 276.9 555.6" id="43,6" /><path d="M 55.5 350.0 L 276.9 569.4" id="43,5" /><path d="M 55.5 350.0 L 276.9 583.1" id="43,4" /><path d="M 55.5 350.0 L 276.9 596.8" id="43,3" /><path d="M 55.5 350.0 L 276.9 610.5" id="43,2" /><path d="M 55.5 350.0 L 276.9 624.2" id="43,1" /><path d="M 55.5 350.0 L 276.9 637.9" id="43,0" /></g><g class="toytree-AlignEdges" style="stroke:rgb(66.3%,66.3%,66.3%);stroke-dasharray:2, 4;stroke-linecap:round;stroke-opacity:1.0;stroke-width:2"><path d="M 276.9 637.9 L 276.9 637.9" /><path d="M 276.9 624.2 L 276.9 624.2" /><path d="M 276.9 610.5 L 276.9 610.5" /><path d="M 276.9 596.8 L 276.9 596.8" /><path d="M 276.9 583.1 L 276.9 583.1" /><path d="M 276.9 569.4 L 276.9 569.4" /><path d="M 276.9 555.6 L 276.9 555.6" /><path d="M 276.9 541.9 L 276.9 541.9" /><path d="M 276.9 528.2 L 276.9 528.2" /><path d="M 276.9 514.5 L 276.9 514.5" /><path d="M 276.9 500.8 L 276.9 500.8" /><path d="M 276.9 487.1 L 276.9 487.1" /><path d="M 276.9 473.4 L 276.9 473.4" /><path d="M 276.9 459.7 L 276.9 459.7" /><path d="M 276.9 446.0 L 276.9 446.0" /><path d="M 276.9 432.3 L 276.9 432.3" /><path d="M 276.9 418.5 L 276.9 418.5" /><path d="M 276.9 404.8 L 276.9 404.8" /><path d="M 276.9 391.1 L 276.9 391.1" /><path d="M 276.9 377.4 L 276.9 377.4" /><path d="M 276.9 363.7 L 276.9 363.7" /><path d="M 276.9 350.0 L 276.9 350.0" /><path d="M 276.9 336.3 L 276.9 336.3" /><path d="M 276.9 322.6 L 276.9 322.6" /><path d="M 276.9 308.9 L 276.9 308.9" /><path d="M 276.9 295.2 L 276.9 295.2" /><path d="M 276.9 281.5 L 276.9 281.5" /><path d="M 276.9 267.7 L 276.9 267.7" /><path d="M 276.9 254.0 L 276.9 254.0" /><path d="M 276.9 240.3 L 276.9 240.3" /><path d="M 276.9 226.6 L 276.9 226.6" /><path d="M 276.9 212.9 L 276.9 212.9" /><path d="M 276.9 199.2 L 276.9 199.2" /><path d="M 276.9 185.5 L 276.9 185.5" /><path d="M 276.9 171.8 L 276.9 171.8" /><path d="M 276.9 158.1 L 276.9 158.1" /><path d="M 276.9 144.4 L 276.9 144.4" /><path d="M 276.9 130.6 L 276.9 130.6" /><path d="M 276.9 116.9 L 276.9 116.9" /><path d="M 276.9 103.2 L 276.9 103.2" /><path d="M 276.9 89.5 L 276.9 89.5" /><path d="M 276.9 75.8 L 276.9 75.8" /><path d="M 276.9 62.1 L 276.9 62.1" /></g><g class="toytree-Nodes" style="fill:rgb(10.6%,62%,46.7%);fill-opacity:1.0;stroke:rgb(100%,100%,100%);stroke-opacity:1.0;stroke-width:1.5"><g id="node-0" transform="translate(276.871,637.908)"><circle r="5.0" /></g><g id="node-1" transform="translate(276.871,624.198)"><circle r="5.0" /></g><g id="node-2" transform="translate(276.871,610.488)"><circle r="5.0" /></g><g id="node-3" transform="translate(276.871,596.778)"><circle r="5.0" /></g><g id="node-4" transform="translate(276.871,583.068)"><circle r="5.0" /></g><g id="node-5" transform="translate(276.871,569.358)"><circle r="5.0" /></g><g id="node-6" transform="translate(276.871,555.648)"><circle r="5.0" /></g><g id="node-7" transform="translate(276.871,541.939)"><circle r="5.0" /></g><g id="node-8" transform="translate(276.871,528.229)"><circle r="5.0" /></g><g id="node-9" transform="translate(276.871,514.519)"><circle r="5.0" /></g><g id="node-10" transform="translate(276.871,500.809)"><circle r="5.0" /></g><g id="node-11" transform="translate(276.871,487.099)"><circle r="5.0" /></g><g id="node-12" transform="translate(276.871,473.389)"><circle r="5.0" /></g><g id="node-13" transform="translate(276.871,459.679)"><circle r="5.0" /></g><g id="node-14" transform="translate(276.871,445.969)"><circle r="5.0" /></g><g id="node-15" transform="translate(276.871,432.259)"><circle r="5.0" /></g><g id="node-16" transform="translate(276.871,418.549)"><circle r="5.0" /></g><g id="node-17" transform="translate(276.871,404.840)"><circle r="5.0" /></g><g id="node-18" transform="translate(276.871,391.130)"><circle r="5.0" /></g><g id="node-19" transform="translate(276.871,377.420)"><circle r="5.0" /></g><g id="node-20" transform="translate(276.871,363.710)"><circle r="5.0" /></g><g id="node-21" transform="translate(276.871,350.000)"><circle r="5.0" /></g><g id="node-22" transform="translate(276.871,336.290)"><circle r="5.0" /></g><g id="node-23" transform="translate(276.871,322.580)"><circle r="5.0" /></g><g id="node-24" transform="translate(276.871,308.870)"><circle r="5.0" /></g><g id="node-25" transform="translate(276.871,295.160)"><circle r="5.0" /></g><g id="node-26" transform="translate(276.871,281.451)"><circle r="5.0" /></g><g id="node-27" transform="translate(276.871,267.741)"><circle r="5.0" /></g><g id="node-28" transform="translate(276.871,254.031)"><circle r="5.0" /></g><g id="node-29" transform="translate(276.871,240.321)"><circle r="5.0" /></g><g id="node-30" transform="translate(276.871,226.611)"><circle r="5.0" /></g><g id="node-31" transform="translate(276.871,212.901)"><circle r="5.0" /></g><g id="node-32" transform="translate(276.871,199.191)"><circle r="5.0" /></g><g id="node-33" transform="translate(276.871,185.481)"><circle r="5.0" /></g><g id="node-34" transform="translate(276.871,171.771)"><circle r="5.0" /></g><g id="node-35" transform="translate(276.871,158.061)"><circle r="5.0" /></g><g id="node-36" transform="translate(276.871,144.352)"><circle r="5.0" /></g><g id="node-37" transform="translate(276.871,130.642)"><circle r="5.0" /></g><g id="node-38" transform="translate(276.871,116.932)"><circle r="5.0" /></g><g id="node-39" transform="translate(276.871,103.222)"><circle r="5.0" /></g><g id="node-40" transform="translate(276.871,89.512)"><circle r="5.0" /></g><g id="node-41" transform="translate(276.871,75.802)"><circle r="5.0" /></g><g id="node-42" transform="translate(276.871,62.092)"><circle r="5.0" /></g><g id="node-43" transform="translate(55.533,350.000)"><circle r="5.0" /></g></g><g class="toytree-TipLabels" style="fill:rgb(14.9%,14.9%,14.9%);fill-opacity:1.0;font-family:helvetica;font-size:11px;font-weight:normal;stroke:none;white-space:pre"><g transform="translate(276.87,637.91)rotate(0)"><text x="15.00" y="2.81" style="">Guangxi_Pangolin_P5E</text></g><g transform="translate(276.87,624.20)rotate(0)"><text x="15.00" y="2.81" style="">Guangxi_Pangolin_P5L</text></g><g transform="translate(276.87,610.49)rotate(0)"><text x="15.00" y="2.81" style="">Guangxi_Pangolin_P4L</text></g><g transform="translate(276.87,596.78)rotate(0)"><text x="15.00" y="2.81" style="">Guangxi_Pangolin_P1E</text></g><g transform="translate(276.87,583.07)rotate(0)"><text x="15.00" y="2.81" style="">HKU3-6</text></g><g transform="translate(276.87,569.36)rotate(0)"><text x="15.00" y="2.81" style="">HKU3-12</text></g><g transform="translate(276.87,555.65)rotate(0)"><text x="15.00" y="2.81" style="">BtCoV_279_2005</text></g><g transform="translate(276.87,541.94)rotate(0)"><text x="15.00" y="2.81" style="">Rf1</text></g><g transform="translate(276.87,528.23)rotate(0)"><text x="15.00" y="2.81" style="">BtCoV_273_2005</text></g><g transform="translate(276.87,514.52)rotate(0)"><text x="15.00" y="2.81" style="">Bat_HKU4-1</text></g><g transform="translate(276.87,500.81)rotate(0)"><text x="15.00" y="2.81" style="">MERS-CoV_S</text></g><g transform="translate(276.87,487.10)rotate(0)"><text x="15.00" y="2.81" style="">Bat_HKU5-1</text></g><g transform="translate(276.87,473.39)rotate(0)"><text x="15.00" y="2.81" style="">Feline_per</text></g><g transform="translate(276.87,459.68)rotate(0)"><text x="15.00" y="2.81" style="">Rat_Parker</text></g><g transform="translate(276.87,445.97)rotate(0)"><text x="15.00" y="2.81" style="">Murine_JHM</text></g><g transform="translate(276.87,432.26)rotate(0)"><text x="15.00" y="2.81" style="">Murine_virus</text></g><g transform="translate(276.87,418.55)rotate(0)"><text x="15.00" y="2.81" style="">Murine_RA59/R13</text></g><g transform="translate(276.87,404.84)rotate(0)"><text x="15.00" y="2.81" style="">Murine_A59</text></g><g transform="translate(276.87,391.13)rotate(0)"><text x="15.00" y="2.81" style="">HKU1</text></g><g transform="translate(276.87,377.42)rotate(0)"><text x="15.00" y="2.81" style="">Human_OC43</text></g><g transform="translate(276.87,363.71)rotate(0)"><text x="15.00" y="2.81" style="">Equine_NC99</text></g><g transform="translate(276.87,350.00)rotate(0)"><text x="15.00" y="2.81" style="">Porcine_v</text></g><g transform="translate(276.87,336.29)rotate(0)"><text x="15.00" y="2.81" style="">Rabbit_HKU14</text></g><g transform="translate(276.87,322.58)rotate(0)"><text x="15.00" y="2.81" style="">Bovine_AH187</text></g><g transform="translate(276.87,308.87)rotate(0)"><text x="15.00" y="2.81" style="">Human_ent_4408</text></g><g transform="translate(276.87,295.16)rotate(0)"><text x="15.00" y="2.81" style="">Bovine_OH440</text></g><g transform="translate(276.87,281.45)rotate(0)"><text x="15.00" y="2.81" style="">Bovine_CoV</text></g><g transform="translate(276.87,267.74)rotate(0)"><text x="15.00" y="2.81" style="">Rs3367</text></g><g transform="translate(276.87,254.03)rotate(0)"><text x="15.00" y="2.81" style="">SARS-CoV_BJ182-4</text></g><g transform="translate(276.87,240.32)rotate(0)"><text x="15.00" y="2.81" style="">Tor2</text></g><g transform="translate(276.87,226.61)rotate(0)"><text x="15.00" y="2.81" style="">SARS</text></g><g transform="translate(276.87,212.90)rotate(0)"><text x="15.00" y="2.81" style="">BtKY72</text></g><g transform="translate(276.87,199.19)rotate(0)"><text x="15.00" y="2.81" style="">BM48_31_BGR_2008</text></g><g transform="translate(276.87,185.48)rotate(0)"><text x="15.00" y="2.81" style="">Bat_CoVZC45</text></g><g transform="translate(276.87,171.77)rotate(0)"><text x="15.00" y="2.81" style="">Bat_CoVZXC21</text></g><g transform="translate(276.87,158.06)rotate(0)"><text x="15.00" y="2.81" style="">Hu_Italy_TE4836_2020</text></g><g transform="translate(276.87,144.35)rotate(0)"><text x="15.00" y="2.81" style="">Hu_USA_UT_00346_2020</text></g><g transform="translate(276.87,130.64)rotate(0)"><text x="15.00" y="2.81" style="">Hu_Wuhan_2020</text></g><g transform="translate(276.87,116.93)rotate(0)"><text x="15.00" y="2.81" style="">Hu_Australia_VIC231_2020</text></g><g transform="translate(276.87,103.22)rotate(0)"><text x="15.00" y="2.81" style="">RaTG13</text></g><g transform="translate(276.87,89.51)rotate(0)"><text x="15.00" y="2.81" style="">Guangdong_Pangolin_1_2019</text></g><g transform="translate(276.87,75.80)rotate(0)"><text x="15.00" y="2.81" style="">Guangdong_Pangolin_P2S_2019</text></g><g transform="translate(276.87,62.09)rotate(0)"><text x="15.00" y="2.81" style="">Guangxi_Pangolin_P2V</text></g></g></g></g></g></svg>