<svg class="toyplot-canvas-Canvas" xmlns:toyplot="http://www.sandia.gov/toyplot" xmlns:xlink="http://www.w3.org/1999/xlink" xmlns="http://www.w3.org/2000/svg" width="400.0px" height="500.0px" viewBox="0 0 400.0 500.0" preserveAspectRatio="xMidYMid meet" style="background-color:transparent;border-color:#292724;border-style:none;border-width:1.0;fill:rgb(16.1%,15.3%,14.1%);fill-opacity:1.0;font-family:Helvetica;font-size:12px;opacity:1.0;stroke:rgb(16.1%,15.3%,14.1%);stroke-opacity:1.0;stroke-width:1.0" id="t9f528a04953f45ceb57afc48c8935fec"><g class="toyplot-coordinates-Cartesian" id="t327e6a5b664043e8b6780292808b2435"><clipPath id="tf10ee85677fe48ca9b29662753dceb12"><rect x="30.0" y="30.0" width="340.0" height="440.0" /></clipPath><g clip-path="url(#tf10ee85677fe48ca9b29662753dceb12)"><g class="toytree-mark-Toytree" id="t85d99737ce1d40289f5fce5c545e198a"><g class="toytree-Edges" style="fill:none;stroke:rgb(14.9%,14.9%,14.9%);stroke-linecap:round;stroke-opacity:1;stroke-width:2"><path d="M 55.4 193.7 L 95.6 117.4" id="44,43" /><path d="M 55.4 193.7 L 75.5 269.9" id="44,42" /><path d="M 95.6 117.4 L 115.6 76.8" id="43,41" /><path d="M 95.6 117.4 L 115.6 158.1" id="43,40" /><path d="M 75.5 269.9 L 95.6 224.3" id="42,39" /><path d="M 75.5 269.9 L 95.6 315.5" id="42,38" /><path d="M 115.6 76.8 L 135.7 91.8" id="41,37" /><path d="M 115.6 158.1 L 135.7 138.8" id="40,36" /><path d="M 115.6 158.1 L 135.7 177.3" id="40,35" /><path d="M 95.6 315.5 L 115.6 266.0" id="38,34" /><path d="M 95.6 315.5 L 115.6 364.9" id="38,33" /><path d="M 135.7 91.8 L 155.8 104.6" id="37,32" /><path d="M 135.7 177.3 L 155.8 190.1" id="35,31" /><path d="M 115.6 266.0 L 135.7 282.1" id="34,30" /><path d="M 115.6 364.9 L 135.7 344.1" id="33,29" /><path d="M 115.6 364.9 L 135.7 385.8" id="33,28" /><path d="M 135.7 282.1 L 155.8 297.0" id="30,27" /><path d="M 135.7 385.8 L 155.8 401.8" id="28,26" /><path d="M 155.8 297.0 L 175.9 309.9" id="27,25" /><path d="M 155.8 401.8 L 175.9 416.8" id="26,24" /><path d="M 175.9 416.8 L 196.0 429.6" id="24,23" /><path d="M 115.6 76.8 L 135.7 61.9" id="41,22" /><path d="M 135.7 91.8 L 155.8 79.0" id="37,21" /><path d="M 155.8 104.6 L 175.9 96.1" id="32,20" /><path d="M 155.8 104.6 L 175.9 113.2" id="32,19" /><path d="M 135.7 138.8 L 155.8 130.3" id="36,18" /><path d="M 135.7 138.8 L 155.8 147.4" id="36,17" /><path d="M 135.7 177.3 L 155.8 164.5" id="35,16" /><path d="M 155.8 190.1 L 175.9 181.6" id="31,15" /><path d="M 155.8 190.1 L 175.9 198.7" id="31,14" /><path d="M 95.6 224.3 L 115.6 215.8" id="39,13" /><path d="M 95.6 224.3 L 115.6 232.9" id="39,12" /><path d="M 115.6 266.0 L 135.7 250.0" id="34,11" /><path d="M 135.7 282.1 L 155.8 267.1" id="30,10" /><path d="M 155.8 297.0 L 175.9 284.2" id="27,9" /><path d="M 175.9 309.9 L 196.0 301.3" id="25,8" /><path d="M 175.9 309.9 L 196.0 318.4" id="25,7" /><path d="M 135.7 344.1 L 155.8 335.5" id="29,6" /><path d="M 135.7 344.1 L 155.8 352.6" id="29,5" /><path d="M 135.7 385.8 L 155.8 369.7" id="28,4" /><path d="M 155.8 401.8 L 175.9 386.8" id="26,3" /><path d="M 175.9 416.8 L 196.0 403.9" id="24,2" /><path d="M 196.0 429.6 L 216.1 421.0" id="23,1" /><path d="M 196.0 429.6 L 216.1 438.1" id="23,0" /></g><g class="toytree-AlignEdges" style="stroke:rgb(66.3%,66.3%,66.3%);stroke-dasharray:2, 4;stroke-linecap:round;stroke-opacity:1.0;stroke-width:2"><path d="M 216.1 438.1 L 216.1 438.1" /><path d="M 216.1 421.0 L 216.1 421.0" /><path d="M 216.1 403.9 L 196.0 403.9" /><path d="M 216.1 386.8 L 175.9 386.8" /><path d="M 216.1 369.7 L 155.8 369.7" /><path d="M 216.1 352.6 L 155.8 352.6" /><path d="M 216.1 335.5 L 155.8 335.5" /><path d="M 216.1 318.4 L 196.0 318.4" /><path d="M 216.1 301.3 L 196.0 301.3" /><path d="M 216.1 284.2 L 175.9 284.2" /><path d="M 216.1 267.1 L 155.8 267.1" /><path d="M 216.1 250.0 L 135.7 250.0" /><path d="M 216.1 232.9 L 115.6 232.9" /><path d="M 216.1 215.8 L 115.6 215.8" /><path d="M 216.1 198.7 L 175.9 198.7" /><path d="M 216.1 181.6 L 175.9 181.6" /><path d="M 216.1 164.5 L 155.8 164.5" /><path d="M 216.1 147.4 L 155.8 147.4" /><path d="M 216.1 130.3 L 155.8 130.3" /><path d="M 216.1 113.2 L 175.9 113.2" /><path d="M 216.1 96.1 L 175.9 96.1" /><path d="M 216.1 79.0 L 155.8 79.0" /><path d="M 216.1 61.9 L 135.7 61.9" /></g><g class="toytree-Nodes" style="fill:rgb(10.6%,62%,46.7%);fill-opacity:1.0;stroke:rgb(100%,100%,100%);stroke-opacity:1.0;stroke-width:1.5"><g id="node-0" transform="translate(216.132,438.147)"><circle r="5.0" /></g><g id="node-1" transform="translate(216.132,421.043)"><circle r="5.0" /></g><g id="node-2" transform="translate(196.036,403.938)"><circle r="5.0" /></g><g id="node-3" transform="translate(175.939,386.834)"><circle r="5.0" /></g><g id="node-4" transform="translate(155.842,369.730)"><circle r="5.0" /></g><g id="node-5" transform="translate(155.842,352.626)"><circle r="5.0" /></g><g id="node-6" transform="translate(155.842,335.521)"><circle r="5.0" /></g><g id="node-7" transform="translate(196.036,318.417)"><circle r="5.0" /></g><g id="node-8" transform="translate(196.036,301.313)"><circle r="5.0" /></g><g id="node-9" transform="translate(175.939,284.209)"><circle r="5.0" /></g><g id="node-10" transform="translate(155.842,267.104)"><circle r="5.0" /></g><g id="node-11" transform="translate(135.746,250.000)"><circle r="5.0" /></g><g id="node-12" transform="translate(115.649,232.896)"><circle r="5.0" /></g><g id="node-13" transform="translate(115.649,215.791)"><circle r="5.0" /></g><g id="node-14" transform="translate(175.939,198.687)"><circle r="5.0" /></g><g id="node-15" transform="translate(175.939,181.583)"><circle r="5.0" /></g><g id="node-16" transform="translate(155.842,164.479)"><circle r="5.0" /></g><g id="node-17" transform="translate(155.842,147.374)"><circle r="5.0" /></g><g id="node-18" transform="translate(155.842,130.270)"><circle r="5.0" /></g><g id="node-19" transform="translate(175.939,113.166)"><circle r="5.0" /></g><g id="node-20" transform="translate(175.939,96.062)"><circle r="5.0" /></g><g id="node-21" transform="translate(155.842,78.957)"><circle r="5.0" /></g><g id="node-22" transform="translate(135.746,61.853)"><circle r="5.0" /></g><g id="node-23" transform="translate(196.036,429.595)"><circle r="5.0" /></g><g id="node-24" transform="translate(175.939,416.766)"><circle r="5.0" /></g><g id="node-25" transform="translate(175.939,309.865)"><circle r="5.0" /></g><g id="node-26" transform="translate(155.842,401.800)"><circle r="5.0" /></g><g id="node-27" transform="translate(155.842,297.037)"><circle r="5.0" /></g><g id="node-28" transform="translate(135.746,385.765)"><circle r="5.0" /></g><g id="node-29" transform="translate(135.746,344.073)"><circle r="5.0" /></g><g id="node-30" transform="translate(135.746,282.070)"><circle r="5.0" /></g><g id="node-31" transform="translate(155.842,190.135)"><circle r="5.0" /></g><g id="node-32" transform="translate(155.842,104.614)"><circle r="5.0" /></g><g id="node-33" transform="translate(115.649,364.919)"><circle r="5.0" /></g><g id="node-34" transform="translate(115.649,266.035)"><circle r="5.0" /></g><g id="node-35" transform="translate(135.746,177.307)"><circle r="5.0" /></g><g id="node-36" transform="translate(135.746,138.822)"><circle r="5.0" /></g><g id="node-37" transform="translate(135.746,91.786)"><circle r="5.0" /></g><g id="node-38" transform="translate(95.552,315.477)"><circle r="5.0" /></g><g id="node-39" transform="translate(95.552,224.344)"><circle r="5.0" /></g><g id="node-40" transform="translate(115.649,158.065)"><circle r="5.0" /></g><g id="node-41" transform="translate(115.649,76.819)"><circle r="5.0" /></g><g id="node-42" transform="translate(75.456,269.910)"><circle r="5.0" /></g><g id="node-43" transform="translate(95.552,117.442)"><circle r="5.0" /></g><g id="node-44" transform="translate(55.359,193.676)"><circle r="5.0" /></g></g><g class="toytree-TipLabels" style="fill:rgb(14.9%,14.9%,14.9%);fill-opacity:1.0;font-family:helvetica;font-size:11px;font-weight:normal;stroke:none;white-space:pre"><g transform="translate(216.13,438.15)rotate(0)"><text x="15.00" y="2.81" style="">Hu_Italy_TE4836_2020</text></g><g transform="translate(216.13,421.04)rotate(0)"><text x="15.00" y="2.81" style="">Hu_USA_UT_00346_2020</text></g><g transform="translate(216.13,403.94)rotate(0)"><text x="15.00" y="2.81" style="">Hu_Wuhan_2020</text></g><g transform="translate(216.13,386.83)rotate(0)"><text x="15.00" y="2.81" style="">Hu_Australia_VIC231_2020</text></g><g transform="translate(216.13,369.73)rotate(0)"><text x="15.00" y="2.81" style="">RaTG13</text></g><g transform="translate(216.13,352.63)rotate(0)"><text x="15.00" y="2.81" style="">Guangdong_Pangolin_1_2019</text></g><g transform="translate(216.13,335.52)rotate(0)"><text x="15.00" y="2.81" style="">Guangdong_Pangolin_P2S_2019</text></g><g transform="translate(216.13,318.42)rotate(0)"><text x="15.00" y="2.81" style="">Guangxi_Pangolin_P1E</text></g><g transform="translate(216.13,301.31)rotate(0)"><text x="15.00" y="2.81" style="">Guangxi_Pangolin_P5L</text></g><g transform="translate(216.13,284.21)rotate(0)"><text x="15.00" y="2.81" style="">Guangxi_Pangolin_P2V</text></g><g transform="translate(216.13,267.10)rotate(0)"><text x="15.00" y="2.81" style="">Guangxi_Pangolin_P5E</text></g><g transform="translate(216.13,250.00)rotate(0)"><text x="15.00" y="2.81" style="">Guangxi_Pangolin_P4L</text></g><g transform="translate(216.13,232.90)rotate(0)"><text x="15.00" y="2.81" style="">Bat_CoVZXC21</text></g><g transform="translate(216.13,215.79)rotate(0)"><text x="15.00" y="2.81" style="">Bat_CoVZC45</text></g><g transform="translate(216.13,198.69)rotate(0)"><text x="15.00" y="2.81" style="">HKU3-6</text></g><g transform="translate(216.13,181.58)rotate(0)"><text x="15.00" y="2.81" style="">HKU3-12</text></g><g transform="translate(216.13,164.48)rotate(0)"><text x="15.00" y="2.81" style="">BtCoV_279_2005</text></g><g transform="translate(216.13,147.37)rotate(0)"><text x="15.00" y="2.81" style="">BtCoV_273_2005</text></g><g transform="translate(216.13,130.27)rotate(0)"><text x="15.00" y="2.81" style="">Rf1</text></g><g transform="translate(216.13,113.17)rotate(0)"><text x="15.00" y="2.81" style="">SARS</text></g><g transform="translate(216.13,96.06)rotate(0)"><text x="15.00" y="2.81" style="">Tor2</text></g><g transform="translate(216.13,78.96)rotate(0)"><text x="15.00" y="2.81" style="">SARS-CoV_BJ182-4</text></g><g transform="translate(216.13,61.85)rotate(0)"><text x="15.00" y="2.81" style="">Rs3367</text></g></g></g></g></g></svg>