<svg class="toyplot-canvas-Canvas" xmlns:toyplot="http://www.sandia.gov/toyplot" xmlns:xlink="http://www.w3.org/1999/xlink" xmlns="http://www.w3.org/2000/svg" width="500.0px" height="700.0px" viewBox="0 0 500.0 700.0" preserveAspectRatio="xMidYMid meet" style="background-color:transparent;border-color:#292724;border-style:none;border-width:1.0;fill:rgb(16.1%,15.3%,14.1%);fill-opacity:1.0;font-family:Helvetica;font-size:12px;opacity:1.0;stroke:rgb(16.1%,15.3%,14.1%);stroke-opacity:1.0;stroke-width:1.0" id="tf538c1df241542619b4d1bf0bb39bb11"><g class="toyplot-coordinates-Cartesian" id="t041e44cc97cf488985b1bd94c51728f4"><clipPath id="tb16f9d8c44aa44038c2e72b928b184d6"><rect x="30.0" y="30.0" width="440.0" height="640.0" /></clipPath><g clip-path="url(#tb16f9d8c44aa44038c2e72b928b184d6)"><g class="toytree-mark-Toytree" id="t5d62b78e4b7441c09199c58fa793d620"><g class="toytree-Edges" style="fill:none;stroke:rgb(14.9%,14.9%,14.9%);stroke-linecap:round;stroke-opacity:1;stroke-width:2"><path d="M 56.1 173.4 L 80.3 106.4" id="83,82" /><path d="M 56.1 173.4 L 80.3 351.8" id="83,81" /><path d="M 80.3 106.4 L 104.6 137.0" id="82,80" /><path d="M 80.3 351.8 L 104.6 278.0" id="81,79" /><path d="M 80.3 351.8 L 104.6 425.7" id="81,78" /><path d="M 104.6 137.0 L 128.8 102.4" id="80,77" /><path d="M 104.6 137.0 L 128.8 171.7" id="80,76" /><path d="M 104.6 278.0 L 128.8 288.3" id="79,75" /><path d="M 104.6 425.7 L 128.8 348.3" id="78,74" /><path d="M 104.6 425.7 L 128.8 503.1" id="78,73" /><path d="M 128.8 102.4 L 153.1 115.2" id="77,72" /><path d="M 128.8 171.7 L 153.1 185.3" id="76,71" /><path d="M 128.8 348.3 L 153.1 315.7" id="74,70" /><path d="M 128.8 348.3 L 153.1 380.8" id="74,69" /><path d="M 128.8 503.1 L 153.1 466.5" id="73,68" /><path d="M 128.8 503.1 L 153.1 539.6" id="73,67" /><path d="M 153.1 115.2 L 177.3 127.2" id="72,66" /><path d="M 153.1 185.3 L 177.3 198.8" id="71,65" /><path d="M 153.1 380.8 L 177.3 348.3" id="69,64" /><path d="M 153.1 380.8 L 177.3 413.4" id="69,63" /><path d="M 153.1 539.6 L 177.3 500.0" id="67,62" /><path d="M 153.1 539.6 L 177.3 579.2" id="67,61" /><path d="M 177.3 127.2 L 201.6 137.5" id="66,60" /><path d="M 177.3 198.8 L 201.6 212.0" id="65,59" /><path d="M 177.3 348.3 L 201.6 360.3" id="64,58" /><path d="M 177.3 413.4 L 201.6 398.0" id="63,57" /><path d="M 177.3 413.4 L 201.6 428.8" id="63,56" /><path d="M 177.3 500.0 L 201.6 512.8" id="62,55" /><path d="M 177.3 579.2 L 201.6 562.5" id="61,54" /><path d="M 177.3 579.2 L 201.6 595.9" id="61,53" /><path d="M 201.6 212.0 L 225.8 224.9" id="59,52" /><path d="M 201.6 360.3 L 225.8 370.6" id="58,51" /><path d="M 201.6 428.8 L 225.8 439.1" id="56,50" /><path d="M 201.6 512.8 L 225.8 524.8" id="55,49" /><path d="M 201.6 595.9 L 225.8 608.8" id="53,48" /><path d="M 225.8 224.9 L 250.1 236.9" id="52,47" /><path d="M 225.8 524.8 L 250.1 535.1" id="49,46" /><path d="M 225.8 608.8 L 250.1 620.8" id="48,45" /><path d="M 250.1 236.9 L 274.3 247.2" id="47,44" /><path d="M 250.1 620.8 L 274.3 631.1" id="45,43" /><path d="M 56.1 173.4 L 80.3 62.1" id="83,42" /><path d="M 80.3 106.4 L 104.6 75.8" id="82,41" /><path d="M 128.8 102.4 L 153.1 89.5" id="77,40" /><path d="M 153.1 115.2 L 177.3 103.2" id="72,39" /><path d="M 177.3 127.2 L 201.6 116.9" id="66,38" /><path d="M 201.6 137.5 L 225.8 130.6" id="60,37" /><path d="M 201.6 137.5 L 225.8 144.4" id="60,36" /><path d="M 128.8 171.7 L 153.1 158.1" id="76,35" /><path d="M 153.1 185.3 L 177.3 171.8" id="71,34" /><path d="M 177.3 198.8 L 201.6 185.5" id="65,33" /><path d="M 201.6 212.0 L 225.8 199.2" id="59,32" /><path d="M 225.8 224.9 L 250.1 212.9" id="52,31" /><path d="M 250.1 236.9 L 274.3 226.6" id="47,30" /><path d="M 274.3 247.2 L 298.6 240.3" id="44,29" /><path d="M 274.3 247.2 L 298.6 254.0" id="44,28" /><path d="M 104.6 278.0 L 128.8 267.7" id="79,27" /><path d="M 128.8 288.3 L 153.1 281.5" id="75,26" /><path d="M 128.8 288.3 L 153.1 295.2" id="75,25" /><path d="M 153.1 315.7 L 177.3 308.9" id="70,24" /><path d="M 153.1 315.7 L 177.3 322.6" id="70,23" /><path d="M 177.3 348.3 L 201.6 336.3" id="64,22" /><path d="M 201.6 360.3 L 225.8 350.0" id="58,21" /><path d="M 225.8 370.6 L 250.1 363.7" id="51,20" /><path d="M 225.8 370.6 L 250.1 377.4" id="51,19" /><path d="M 201.6 398.0 L 225.8 391.1" id="57,18" /><path d="M 201.6 398.0 L 225.8 404.8" id="57,17" /><path d="M 201.6 428.8 L 225.8 418.5" id="56,16" /><path d="M 225.8 439.1 L 250.1 432.3" id="50,15" /><path d="M 225.8 439.1 L 250.1 446.0" id="50,14" /><path d="M 153.1 466.5 L 177.3 459.7" id="68,13" /><path d="M 153.1 466.5 L 177.3 473.4" id="68,12" /><path d="M 177.3 500.0 L 201.6 487.1" id="62,11" /><path d="M 201.6 512.8 L 225.8 500.8" id="55,10" /><path d="M 225.8 524.8 L 250.1 514.5" id="49,9" /><path d="M 250.1 535.1 L 274.3 528.2" id="46,8" /><path d="M 250.1 535.1 L 274.3 541.9" id="46,7" /><path d="M 201.6 562.5 L 225.8 555.6" id="54,6" /><path d="M 201.6 562.5 L 225.8 569.4" id="54,5" /><path d="M 201.6 595.9 L 225.8 583.1" id="53,4" /><path d="M 225.8 608.8 L 250.1 596.8" id="48,3" /><path d="M 250.1 620.8 L 274.3 610.5" id="45,2" /><path d="M 274.3 631.1 L 298.6 624.2" id="43,1" /><path d="M 274.3 631.1 L 298.6 637.9" id="43,0" /></g><g class="toytree-AlignEdges" style="stroke:rgb(66.3%,66.3%,66.3%);stroke-dasharray:2, 4;stroke-linecap:round;stroke-opacity:1.0;stroke-width:2"><path d="M 298.6 637.9 L 298.6 637.9" /><path d="M 298.6 624.2 L 298.6 624.2" /><path d="M 298.6 610.5 L 274.3 610.5" /><path d="M 298.6 596.8 L 250.1 596.8" /><path d="M 298.6 583.1 L 225.8 583.1" /><path d="M 298.6 569.4 L 225.8 569.4" /><path d="M 298.6 555.6 L 225.8 555.6" /><path d="M 298.6 541.9 L 274.3 541.9" /><path d="M 298.6 528.2 L 274.3 528.2" /><path d="M 298.6 514.5 L 250.1 514.5" /><path d="M 298.6 500.8 L 225.8 500.8" /><path d="M 298.6 487.1 L 201.6 487.1" /><path d="M 298.6 473.4 L 177.3 473.4" /><path d="M 298.6 459.7 L 177.3 459.7" /><path d="M 298.6 446.0 L 250.1 446.0" /><path d="M 298.6 432.3 L 250.1 432.3" /><path d="M 298.6 418.5 L 225.8 418.5" /><path d="M 298.6 404.8 L 225.8 404.8" /><path d="M 298.6 391.1 L 225.8 391.1" /><path d="M 298.6 377.4 L 250.1 377.4" /><path d="M 298.6 363.7 L 250.1 363.7" /><path d="M 298.6 350.0 L 225.8 350.0" /><path d="M 298.6 336.3 L 201.6 336.3" /><path d="M 298.6 322.6 L 177.3 322.6" /><path d="M 298.6 308.9 L 177.3 308.9" /><path d="M 298.6 295.2 L 153.1 295.2" /><path d="M 298.6 281.5 L 153.1 281.5" /><path d="M 298.6 267.7 L 128.8 267.7" /><path d="M 298.6 254.0 L 298.6 254.0" /><path d="M 298.6 240.3 L 298.6 240.3" /><path d="M 298.6 226.6 L 274.3 226.6" /><path d="M 298.6 212.9 L 250.1 212.9" /><path d="M 298.6 199.2 L 225.8 199.2" /><path d="M 298.6 185.5 L 201.6 185.5" /><path d="M 298.6 171.8 L 177.3 171.8" /><path d="M 298.6 158.1 L 153.1 158.1" /><path d="M 298.6 144.4 L 225.8 144.4" /><path d="M 298.6 130.6 L 225.8 130.6" /><path d="M 298.6 116.9 L 201.6 116.9" /><path d="M 298.6 103.2 L 177.3 103.2" /><path d="M 298.6 89.5 L 153.1 89.5" /><path d="M 298.6 75.8 L 104.6 75.8" /><path d="M 298.6 62.1 L 80.3 62.1" /></g><g class="toytree-Nodes" style="fill:rgb(10.6%,62%,46.7%);fill-opacity:1.0;stroke:rgb(100%,100%,100%);stroke-opacity:1.0;stroke-width:1.5"><g id="node-0" transform="translate(298.562,637.908)"><circle r="5.0" /></g><g id="node-1" transform="translate(298.562,624.198)"><circle r="5.0" /></g><g id="node-2" transform="translate(274.312,610.488)"><circle r="5.0" /></g><g id="node-3" transform="translate(250.062,596.778)"><circle r="5.0" /></g><g id="node-4" transform="translate(225.812,583.068)"><circle r="5.0" /></g><g id="node-5" transform="translate(225.812,569.358)"><circle r="5.0" /></g><g id="node-6" transform="translate(225.812,555.648)"><circle r="5.0" /></g><g id="node-7" transform="translate(274.312,541.939)"><circle r="5.0" /></g><g id="node-8" transform="translate(274.312,528.229)"><circle r="5.0" /></g><g id="node-9" transform="translate(250.062,514.519)"><circle r="5.0" /></g><g id="node-10" transform="translate(225.812,500.809)"><circle r="5.0" /></g><g id="node-11" transform="translate(201.562,487.099)"><circle r="5.0" /></g><g id="node-12" transform="translate(177.312,473.389)"><circle r="5.0" /></g><g id="node-13" transform="translate(177.312,459.679)"><circle r="5.0" /></g><g id="node-14" transform="translate(250.062,445.969)"><circle r="5.0" /></g><g id="node-15" transform="translate(250.062,432.259)"><circle r="5.0" /></g><g id="node-16" transform="translate(225.812,418.549)"><circle r="5.0" /></g><g id="node-17" transform="translate(225.812,404.840)"><circle r="5.0" /></g><g id="node-18" transform="translate(225.812,391.130)"><circle r="5.0" /></g><g id="node-19" transform="translate(250.062,377.420)"><circle r="5.0" /></g><g id="node-20" transform="translate(250.062,363.710)"><circle r="5.0" /></g><g id="node-21" transform="translate(225.812,350.000)"><circle r="5.0" /></g><g id="node-22" transform="translate(201.562,336.290)"><circle r="5.0" /></g><g id="node-23" transform="translate(177.312,322.580)"><circle r="5.0" /></g><g id="node-24" transform="translate(177.312,308.870)"><circle r="5.0" /></g><g id="node-25" transform="translate(153.062,295.160)"><circle r="5.0" /></g><g id="node-26" transform="translate(153.062,281.451)"><circle r="5.0" /></g><g id="node-27" transform="translate(128.812,267.741)"><circle r="5.0" /></g><g id="node-28" transform="translate(298.562,254.031)"><circle r="5.0" /></g><g id="node-29" transform="translate(298.562,240.321)"><circle r="5.0" /></g><g id="node-30" transform="translate(274.312,226.611)"><circle r="5.0" /></g><g id="node-31" transform="translate(250.062,212.901)"><circle r="5.0" /></g><g id="node-32" transform="translate(225.812,199.191)"><circle r="5.0" /></g><g id="node-33" transform="translate(201.562,185.481)"><circle r="5.0" /></g><g id="node-34" transform="translate(177.312,171.771)"><circle r="5.0" /></g><g id="node-35" transform="translate(153.062,158.061)"><circle r="5.0" /></g><g id="node-36" transform="translate(225.812,144.352)"><circle r="5.0" /></g><g id="node-37" transform="translate(225.812,130.642)"><circle r="5.0" /></g><g id="node-38" transform="translate(201.562,116.932)"><circle r="5.0" /></g><g id="node-39" transform="translate(177.312,103.222)"><circle r="5.0" /></g><g id="node-40" transform="translate(153.062,89.512)"><circle r="5.0" /></g><g id="node-41" transform="translate(104.562,75.802)"><circle r="5.0" /></g><g id="node-42" transform="translate(80.312,62.092)"><circle r="5.0" /></g><g id="node-43" transform="translate(274.312,631.053)"><circle r="5.0" /></g><g id="node-44" transform="translate(274.312,247.176)"><circle r="5.0" /></g><g id="node-45" transform="translate(250.062,620.770)"><circle r="5.0" /></g><g id="node-46" transform="translate(250.062,535.084)"><circle r="5.0" /></g><g id="node-47" transform="translate(250.062,236.893)"><circle r="5.0" /></g><g id="node-48" transform="translate(225.812,608.774)"><circle r="5.0" /></g><g id="node-49" transform="translate(225.812,524.801)"><circle r="5.0" /></g><g id="node-50" transform="translate(225.812,439.114)"><circle r="5.0" /></g><g id="node-51" transform="translate(225.812,370.565)"><circle r="5.0" /></g><g id="node-52" transform="translate(225.812,224.897)"><circle r="5.0" /></g><g id="node-53" transform="translate(201.562,595.921)"><circle r="5.0" /></g><g id="node-54" transform="translate(201.562,562.503)"><circle r="5.0" /></g><g id="node-55" transform="translate(201.562,512.805)"><circle r="5.0" /></g><g id="node-56" transform="translate(201.562,428.832)"><circle r="5.0" /></g><g id="node-57" transform="translate(201.562,397.985)"><circle r="5.0" /></g><g id="node-58" transform="translate(201.562,360.282)"><circle r="5.0" /></g><g id="node-59" transform="translate(201.562,212.044)"><circle r="5.0" /></g><g id="node-60" transform="translate(201.562,137.497)"><circle r="5.0" /></g><g id="node-61" transform="translate(177.312,579.212)"><circle r="5.0" /></g><g id="node-62" transform="translate(177.312,499.952)"><circle r="5.0" /></g><g id="node-63" transform="translate(177.312,413.408)"><circle r="5.0" /></g><g id="node-64" transform="translate(177.312,348.286)"><circle r="5.0" /></g><g id="node-65" transform="translate(177.312,198.763)"><circle r="5.0" /></g><g id="node-66" transform="translate(177.312,127.214)"><circle r="5.0" /></g><g id="node-67" transform="translate(153.062,539.582)"><circle r="5.0" /></g><g id="node-68" transform="translate(153.062,466.534)"><circle r="5.0" /></g><g id="node-69" transform="translate(153.062,380.847)"><circle r="5.0" /></g><g id="node-70" transform="translate(153.062,315.725)"><circle r="5.0" /></g><g id="node-71" transform="translate(153.062,185.267)"><circle r="5.0" /></g><g id="node-72" transform="translate(153.062,115.218)"><circle r="5.0" /></g><g id="node-73" transform="translate(128.812,503.058)"><circle r="5.0" /></g><g id="node-74" transform="translate(128.812,348.286)"><circle r="5.0" /></g><g id="node-75" transform="translate(128.812,288.305)"><circle r="5.0" /></g><g id="node-76" transform="translate(128.812,171.664)"><circle r="5.0" /></g><g id="node-77" transform="translate(128.812,102.365)"><circle r="5.0" /></g><g id="node-78" transform="translate(104.562,425.672)"><circle r="5.0" /></g><g id="node-79" transform="translate(104.562,278.023)"><circle r="5.0" /></g><g id="node-80" transform="translate(104.562,137.015)"><circle r="5.0" /></g><g id="node-81" transform="translate(80.312,351.848)"><circle r="5.0" /></g><g id="node-82" transform="translate(80.312,106.408)"><circle r="5.0" /></g><g id="node-83" transform="translate(56.062,173.449)"><circle r="5.0" /></g></g><g class="toytree-TipLabels" style="fill:rgb(14.9%,14.9%,14.9%);fill-opacity:1.0;font-family:helvetica;font-size:11px;font-weight:normal;stroke:none;white-space:pre"><g transform="translate(298.56,637.91)rotate(0)"><text x="15.00" y="2.81" style="">Hu_Italy_TE4836_2020</text></g><g transform="translate(298.56,624.20)rotate(0)"><text x="15.00" y="2.81" style="">Hu_USA_UT_00346_2020</text></g><g transform="translate(298.56,610.49)rotate(0)"><text x="15.00" y="2.81" style="">Hu_Wuhan_2020</text></g><g transform="translate(298.56,596.78)rotate(0)"><text x="15.00" y="2.81" style="">Hu_Australia_VIC231_2020</text></g><g transform="translate(298.56,583.07)rotate(0)"><text x="15.00" y="2.81" style="">RaTG13</text></g><g transform="translate(298.56,569.36)rotate(0)"><text x="15.00" y="2.81" style="">Guangdong_Pangolin_1_2019</text></g><g transform="translate(298.56,555.65)rotate(0)"><text x="15.00" y="2.81" style="">Guangdong_Pangolin_P2S_2019</text></g><g transform="translate(298.56,541.94)rotate(0)"><text x="15.00" y="2.81" style="">Guangxi_Pangolin_P1E</text></g><g transform="translate(298.56,528.23)rotate(0)"><text x="15.00" y="2.81" style="">Guangxi_Pangolin_P5L</text></g><g transform="translate(298.56,514.52)rotate(0)"><text x="15.00" y="2.81" style="">Guangxi_Pangolin_P2V</text></g><g transform="translate(298.56,500.81)rotate(0)"><text x="15.00" y="2.81" style="">Guangxi_Pangolin_P5E</text></g><g transform="translate(298.56,487.10)rotate(0)"><text x="15.00" y="2.81" style="">Guangxi_Pangolin_P4L</text></g><g transform="translate(298.56,473.39)rotate(0)"><text x="15.00" y="2.81" style="">Bat_CoVZXC21</text></g><g transform="translate(298.56,459.68)rotate(0)"><text x="15.00" y="2.81" style="">Bat_CoVZC45</text></g><g transform="translate(298.56,445.97)rotate(0)"><text x="15.00" y="2.81" style="">HKU3-6</text></g><g transform="translate(298.56,432.26)rotate(0)"><text x="15.00" y="2.81" style="">HKU3-12</text></g><g transform="translate(298.56,418.55)rotate(0)"><text x="15.00" y="2.81" style="">BtCoV_279_2005</text></g><g transform="translate(298.56,404.84)rotate(0)"><text x="15.00" y="2.81" style="">BtCoV_273_2005</text></g><g transform="translate(298.56,391.13)rotate(0)"><text x="15.00" y="2.81" style="">Rf1</text></g><g transform="translate(298.56,377.42)rotate(0)"><text x="15.00" y="2.81" style="">SARS</text></g><g transform="translate(298.56,363.71)rotate(0)"><text x="15.00" y="2.81" style="">Tor2</text></g><g transform="translate(298.56,350.00)rotate(0)"><text x="15.00" y="2.81" style="">SARS-CoV_BJ182-4</text></g><g transform="translate(298.56,336.29)rotate(0)"><text x="15.00" y="2.81" style="">Rs3367</text></g><g transform="translate(298.56,322.58)rotate(0)"><text x="15.00" y="2.81" style="">BtKY72</text></g><g transform="translate(298.56,308.87)rotate(0)"><text x="15.00" y="2.81" style="">BM48_31_BGR_2008</text></g><g transform="translate(298.56,295.16)rotate(0)"><text x="15.00" y="2.81" style="">Bat_HKU4-1</text></g><g transform="translate(298.56,281.45)rotate(0)"><text x="15.00" y="2.81" style="">Bat_HKU5-1</text></g><g transform="translate(298.56,267.74)rotate(0)"><text x="15.00" y="2.81" style="">MERS-CoV_S</text></g><g transform="translate(298.56,254.03)rotate(0)"><text x="15.00" y="2.81" style="">Bovine_AH187</text></g><g transform="translate(298.56,240.32)rotate(0)"><text x="15.00" y="2.81" style="">Bovine_CoV</text></g><g transform="translate(298.56,226.61)rotate(0)"><text x="15.00" y="2.81" style="">Bovine_OH440</text></g><g transform="translate(298.56,212.90)rotate(0)"><text x="15.00" y="2.81" style="">Human_ent_4408</text></g><g transform="translate(298.56,199.19)rotate(0)"><text x="15.00" y="2.81" style="">Human_OC43</text></g><g transform="translate(298.56,185.48)rotate(0)"><text x="15.00" y="2.81" style="">Porcine_v</text></g><g transform="translate(298.56,171.77)rotate(0)"><text x="15.00" y="2.81" style="">Equine_NC99</text></g><g transform="translate(298.56,158.06)rotate(0)"><text x="15.00" y="2.81" style="">Rabbit_HKU14</text></g><g transform="translate(298.56,144.35)rotate(0)"><text x="15.00" y="2.81" style="">Murine_RA59/R13</text></g><g transform="translate(298.56,130.64)rotate(0)"><text x="15.00" y="2.81" style="">Murine_JHM</text></g><g transform="translate(298.56,116.93)rotate(0)"><text x="15.00" y="2.81" style="">Murine_A59</text></g><g transform="translate(298.56,103.22)rotate(0)"><text x="15.00" y="2.81" style="">Murine_virus</text></g><g transform="translate(298.56,89.51)rotate(0)"><text x="15.00" y="2.81" style="">Rat_Parker</text></g><g transform="translate(298.56,75.80)rotate(0)"><text x="15.00" y="2.81" style="">HKU1</text></g><g transform="translate(298.56,62.09)rotate(0)"><text x="15.00" y="2.81" style="">Feline_per</text></g></g></g></g></g></svg>