<svg class="toyplot-canvas-Canvas" xmlns:toyplot="http://www.sandia.gov/toyplot" xmlns:xlink="http://www.w3.org/1999/xlink" xmlns="http://www.w3.org/2000/svg" width="400.0px" height="500.0px" viewBox="0 0 400.0 500.0" preserveAspectRatio="xMidYMid meet" style="background-color:transparent;border-color:#292724;border-style:none;border-width:1.0;fill:rgb(16.1%,15.3%,14.1%);fill-opacity:1.0;font-family:Helvetica;font-size:12px;opacity:1.0;stroke:rgb(16.1%,15.3%,14.1%);stroke-opacity:1.0;stroke-width:1.0" id="t4a0efaf531ec413380c4eef67f06e4c7"><g class="toyplot-coordinates-Cartesian" id="t1bb5133896b443a4bd6bb0b26dfa21ce"><clipPath id="taefc516eb90748049534fb2cd3cb29c0"><rect x="30.0" y="30.0" width="340.0" height="440.0" /></clipPath><g clip-path="url(#taefc516eb90748049534fb2cd3cb29c0)"><g class="toytree-mark-Toytree" id="t5f14beecde2d4cc3adf34e68ea1dac7e"><g class="toytree-Edges" style="fill:none;stroke:rgb(14.9%,14.9%,14.9%);stroke-linecap:round;stroke-opacity:1;stroke-width:2"><path d="M 55.0 196.8 L 62.1 121.7" id="32,31" /><path d="M 55.0 196.8 L 58.0 155.9" id="32,30" /><path d="M 55.0 196.8 L 62.1 190.1" id="32,29" /><path d="M 55.0 196.8 L 81.3 232.9" id="32,28" /><path d="M 55.0 196.8 L 81.3 284.2" id="32,27" /><path d="M 55.0 196.8 L 82.6 344.1" id="32,26" /><path d="M 55.0 196.8 L 96.7 401.8" id="32,25" /><path d="M 96.7 401.8 L 138.4 416.8" id="25,24" /><path d="M 138.4 416.8 L 180.1 429.6" id="24,23" /><path d="M 55.0 196.8 L 58.0 61.9" id="32,22" /><path d="M 55.0 196.8 L 58.0 79.0" id="32,21" /><path d="M 55.0 196.8 L 58.0 96.1" id="32,20" /><path d="M 62.1 121.7 L 65.0 113.2" id="31,19" /><path d="M 62.1 121.7 L 65.0 130.3" id="31,18" /><path d="M 58.0 155.9 L 84.2 147.4" id="30,17" /><path d="M 58.0 155.9 L 84.6 164.5" id="30,16" /><path d="M 62.1 190.1 L 65.9 181.6" id="29,15" /><path d="M 62.1 190.1 L 65.0 198.7" id="29,14" /><path d="M 81.3 232.9 L 107.6 215.8" id="28,13" /><path d="M 81.3 232.9 L 107.6 232.9" id="28,12" /><path d="M 81.3 232.9 L 107.6 250.0" id="28,11" /><path d="M 81.3 284.2 L 107.6 267.1" id="27,10" /><path d="M 81.3 284.2 L 107.6 284.2" id="27,9" /><path d="M 81.3 284.2 L 107.6 301.3" id="27,8" /><path d="M 82.6 344.1 L 110.1 318.4" id="26,7" /><path d="M 82.6 344.1 L 110.1 335.5" id="26,6" /><path d="M 82.6 344.1 L 110.1 352.6" id="26,5" /><path d="M 82.6 344.1 L 110.1 369.7" id="26,4" /><path d="M 96.7 401.8 L 99.6 386.8" id="25,3" /><path d="M 138.4 416.8 L 141.3 403.9" id="24,2" /><path d="M 180.1 429.6 L 181.3 421.0" id="23,1" /><path d="M 180.1 429.6 L 206.3 438.1" id="23,0" /></g><g class="toytree-AlignEdges" style="stroke:rgb(66.3%,66.3%,66.3%);stroke-dasharray:2, 4;stroke-linecap:round;stroke-opacity:1.0;stroke-width:2"><path d="M 206.3 438.1 L 206.3 438.1" /><path d="M 206.3 421.0 L 181.3 421.0" /><path d="M 206.3 403.9 L 141.3 403.9" /><path d="M 206.3 386.8 L 99.6 386.8" /><path d="M 206.3 369.7 L 110.1 369.7" /><path d="M 206.3 352.6 L 110.1 352.6" /><path d="M 206.3 335.5 L 110.1 335.5" /><path d="M 206.3 318.4 L 110.1 318.4" /><path d="M 206.3 301.3 L 107.6 301.3" /><path d="M 206.3 284.2 L 107.6 284.2" /><path d="M 206.3 267.1 L 107.6 267.1" /><path d="M 206.3 250.0 L 107.6 250.0" /><path d="M 206.3 232.9 L 107.6 232.9" /><path d="M 206.3 215.8 L 107.6 215.8" /><path d="M 206.3 198.7 L 65.0 198.7" /><path d="M 206.3 181.6 L 65.9 181.6" /><path d="M 206.3 164.5 L 84.6 164.5" /><path d="M 206.3 147.4 L 84.2 147.4" /><path d="M 206.3 130.3 L 65.0 130.3" /><path d="M 206.3 113.2 L 65.0 113.2" /><path d="M 206.3 96.1 L 58.0 96.1" /><path d="M 206.3 79.0 L 58.0 79.0" /><path d="M 206.3 61.9 L 58.0 61.9" /></g><g class="toytree-Nodes" style="fill:rgb(10.6%,62%,46.7%);fill-opacity:1.0;stroke:rgb(100%,100%,100%);stroke-opacity:1.0;stroke-width:1.5"><g id="node-0" transform="translate(206.338,438.147)"><circle r="5.0" /></g><g id="node-1" transform="translate(181.331,421.043)"><circle r="5.0" /></g><g id="node-2" transform="translate(141.319,403.938)"><circle r="5.0" /></g><g id="node-3" transform="translate(99.640,386.834)"><circle r="5.0" /></g><g id="node-4" transform="translate(110.059,369.730)"><circle r="5.0" /></g><g id="node-5" transform="translate(110.059,352.626)"><circle r="5.0" /></g><g id="node-6" transform="translate(110.059,335.521)"><circle r="5.0" /></g><g id="node-7" transform="translate(110.059,318.417)"><circle r="5.0" /></g><g id="node-8" transform="translate(107.559,301.313)"><circle r="5.0" /></g><g id="node-9" transform="translate(107.559,284.209)"><circle r="5.0" /></g><g id="node-10" transform="translate(107.559,267.104)"><circle r="5.0" /></g><g id="node-11" transform="translate(107.559,250.000)"><circle r="5.0" /></g><g id="node-12" transform="translate(107.559,232.896)"><circle r="5.0" /></g><g id="node-13" transform="translate(107.559,215.791)"><circle r="5.0" /></g><g id="node-14" transform="translate(65.046,198.687)"><circle r="5.0" /></g><g id="node-15" transform="translate(65.880,181.583)"><circle r="5.0" /></g><g id="node-16" transform="translate(84.635,164.479)"><circle r="5.0" /></g><g id="node-17" transform="translate(84.218,147.374)"><circle r="5.0" /></g><g id="node-18" transform="translate(65.046,130.270)"><circle r="5.0" /></g><g id="node-19" transform="translate(65.046,113.166)"><circle r="5.0" /></g><g id="node-20" transform="translate(57.961,96.062)"><circle r="5.0" /></g><g id="node-21" transform="translate(57.961,78.957)"><circle r="5.0" /></g><g id="node-22" transform="translate(57.961,61.853)"><circle r="5.0" /></g><g id="node-23" transform="translate(180.080,429.595)"><circle r="5.0" /></g><g id="node-24" transform="translate(138.401,416.766)"><circle r="5.0" /></g><g id="node-25" transform="translate(96.722,401.800)"><circle r="5.0" /></g><g id="node-26" transform="translate(82.551,344.073)"><circle r="5.0" /></g><g id="node-27" transform="translate(81.301,284.209)"><circle r="5.0" /></g><g id="node-28" transform="translate(81.301,232.896)"><circle r="5.0" /></g><g id="node-29" transform="translate(62.129,190.135)"><circle r="5.0" /></g><g id="node-30" transform="translate(57.961,155.927)"><circle r="5.0" /></g><g id="node-31" transform="translate(62.129,121.718)"><circle r="5.0" /></g><g id="node-32" transform="translate(55.043,196.763)"><circle r="5.0" /></g></g><g class="toytree-TipLabels" style="fill:rgb(14.9%,14.9%,14.9%);fill-opacity:1.0;font-family:helvetica;font-size:11px;font-weight:normal;stroke:none;white-space:pre"><g transform="translate(206.34,438.15)rotate(0)"><text x="15.00" y="2.81" style="">Guangdong_Pangolin_1_2019</text></g><g transform="translate(206.34,421.04)rotate(0)"><text x="15.00" y="2.81" style="">Guangdong_Pangolin_P2S_2019</text></g><g transform="translate(206.34,403.94)rotate(0)"><text x="15.00" y="2.81" style="">BtCoV_273_2005</text></g><g transform="translate(206.34,386.83)rotate(0)"><text x="15.00" y="2.81" style="">Rs3367</text></g><g transform="translate(206.34,369.73)rotate(0)"><text x="15.00" y="2.81" style="">Hu_Italy_TE4836_2020</text></g><g transform="translate(206.34,352.63)rotate(0)"><text x="15.00" y="2.81" style="">Hu_Wuhan_2020</text></g><g transform="translate(206.34,335.52)rotate(0)"><text x="15.00" y="2.81" style="">Hu_USA_UT_00346_2020</text></g><g transform="translate(206.34,318.42)rotate(0)"><text x="15.00" y="2.81" style="">Hu_Australia_VIC231_2020</text></g><g transform="translate(206.34,301.31)rotate(0)"><text x="15.00" y="2.81" style="">SARS-CoV_BJ182-4</text></g><g transform="translate(206.34,284.21)rotate(0)"><text x="15.00" y="2.81" style="">Tor2</text></g><g transform="translate(206.34,267.10)rotate(0)"><text x="15.00" y="2.81" style="">SARS</text></g><g transform="translate(206.34,250.00)rotate(0)"><text x="15.00" y="2.81" style="">Guangxi_Pangolin_P5L</text></g><g transform="translate(206.34,232.90)rotate(0)"><text x="15.00" y="2.81" style="">Guangxi_Pangolin_P4L</text></g><g transform="translate(206.34,215.79)rotate(0)"><text x="15.00" y="2.81" style="">Guangxi_Pangolin_P2V</text></g><g transform="translate(206.34,198.69)rotate(0)"><text x="15.00" y="2.81" style="">Bat_CoVZC45</text></g><g transform="translate(206.34,181.58)rotate(0)"><text x="15.00" y="2.81" style="">Bat_CoVZXC21</text></g><g transform="translate(206.34,164.48)rotate(0)"><text x="15.00" y="2.81" style="">Guangxi_Pangolin_P5E</text></g><g transform="translate(206.34,147.37)rotate(0)"><text x="15.00" y="2.81" style="">Guangxi_Pangolin_P1E</text></g><g transform="translate(206.34,130.27)rotate(0)"><text x="15.00" y="2.81" style="">HKU3-6</text></g><g transform="translate(206.34,113.17)rotate(0)"><text x="15.00" y="2.81" style="">HKU3-12</text></g><g transform="translate(206.34,96.06)rotate(0)"><text x="15.00" y="2.81" style="">BtCoV_279_2005</text></g><g transform="translate(206.34,78.96)rotate(0)"><text x="15.00" y="2.81" style="">Rf1</text></g><g transform="translate(206.34,61.85)rotate(0)"><text x="15.00" y="2.81" style="">RaTG13</text></g></g></g></g></g></svg>